# xmcd
#
# Track frame offsets: 
#        150
#        22305
#        42334
#        68055
#        88016
#        106631
#
# Disc length: 1878 seconds
#
# Revision: 0
# Processed by: cddbd v1.5.2PL0 Copyright (c) Steve Scherf et al.
# Submitted via: ExactAudioCopy v1.3
#
DISCID=47075406
DTITLE=Johnny Neel - Clean Break
DYEAR=2019
DGENRE=Blues Rock
TTITLE0=Clean Break
TTITLE1=Hard Luck S.O.B
TTITLE2=I'm So Lonesome
TTITLE3=That's The Way Love Goes
TTITLE4=Too Much Love
TTITLE5=Why Do My Baby Treat Me Right
EXTD=
EXTT0=
EXTT1=
EXTT2=
EXTT3=
EXTT4=
EXTT5=
PLAYORDER=
